<?xml version="1.0" standalone="no"?>
<!DOCTYPE svg PUBLIC "-//W3C//DTD SVG 20010904//EN"
 "http://www.w3.org/TR/2001/REC-SVG-20010904/DTD/svg10.dtd">
<svg version="1.0" xmlns="http://www.w3.org/2000/svg"
 width="300.000000pt" height="279.000000pt" viewBox="0 0 300.000000 279.000000"
 preserveAspectRatio="xMidYMid meet">
<metadata>
Created by potrace 1.10, written by Peter Selinger 2001-2011
</metadata>
<g transform="translate(0.000000,279.000000) scale(0.100000,-0.100000)"
fill="#000000" stroke="none">
<path d="M72 1393 c2 -714 6 -1297 11 -1295 4 1 636 2 1405 2 l1397 0 -3 1295
-2 1295 -1405 0 -1405 0 2 -1297z m698 967 l0 -310 -340 0 -340 0 0 310 0 310
340 0 340 0 0 -310z m700 0 l0 -310 -340 0 -340 0 0 310 0 310 340 0 340 0 0
-310z m698 5 c-2 -168 0 -305 4 -305 4 0 11 6 15 13 4 7 74 68 155 135 155
129 168 142 145 142 -16 0 -173 -125 -249 -199 l-48 -45 0 282 0 282 335 0
335 0 0 -310 0 -310 -300 0 c-165 0 -300 1 -300 3 0 2 54 48 120 102 66 54
120 102 120 106 0 5 12 15 28 23 22 12 24 16 11 21 -12 4 -63 -33 -173 -124
-85 -72 -165 -136 -176 -143 -19 -12 -20 -22 -20 -325 l0 -313 -165 0 c-103 0
-165 -4 -165 -10 0 -5 -7 -10 -15 -10 -8 0 -15 5 -15 10 0 6 -60 10 -160 10
l-160 0 0 315 0 315 324 0 c206 0 327 4 331 10 4 7 -107 10 -324 10 l-331 0 0
310 0 310 341 0 340 0 -3 -305z m-1398 -650 l0 -315 -340 0 -340 0 0 315 0
315 340 0 340 0 0 -315z m700 0 l0 -315 -340 0 -340 0 0 315 0 315 340 0 340
0 0 -315z m1393 3 l-3 -313 -335 -3 -335 -2 0 315 0 315 338 0 337 0 -2 -312z
m-2093 -645 l0 -313 -340 0 -340 0 0 313 0 312 340 0 340 0 0 -312z m700 4 c0
-203 3 -306 10 -302 6 4 10 119 10 312 l0 305 23 -6 c12 -3 84 -6 160 -6 l137
0 0 -93 c0 -77 3 -94 15 -94 12 0 15 17 15 93 l0 93 158 3 c86 2 160 2 165 0
4 -2 7 -142 7 -313 l0 -309 -165 0 c-103 0 -165 -4 -165 -10 0 -6 62 -10 165
-10 l165 0 -2 -310 -3 -311 -338 -2 -337 -2 0 143 c0 188 -19 190 -22 2 l-3
-140 -338 -3 -337 -2 0 144 c0 126 -2 142 -16 137 -9 -3 -86 -6 -172 -6 -105
0 -152 -4 -142 -10 8 -5 79 -10 156 -10 167 0 154 12 154 -147 l0 -103 -335 0
-335 0 0 310 0 310 335 0 335 0 0 -122 c0 -68 -3 -132 -6 -143 -5 -19 -14 -20
-152 -23 -212 -4 -207 -22 6 -22 l172 0 0 155 0 155 329 0 c209 0 332 4 336
10 4 7 -108 10 -329 10 l-336 0 0 313 0 312 340 0 340 0 0 -308z m1393 -6 l2
-311 -337 0 -338 0 0 313 0 312 335 -2 336 -2 2 -310z m-1 -641 l-3 -309 -334
-3 -335 -3 0 313 0 312 338 0 337 0 -3 -310z"/>
<path d="M390 2405 c-11 -13 -8 -14 18 -9 38 8 49 -9 22 -34 l-21 -19 21 -6
c16 -4 21 -12 18 -29 -2 -19 -8 -23 -36 -20 -17 1 -32 -2 -32 -8 0 -18 59 -11
80 10 24 24 24 30 6 56 -10 13 -11 23 -4 31 6 7 8 20 4 28 -7 20 -60 20 -76 0z"/>
<path d="M1090 2430 c-13 -8 -12 -10 3 -10 14 0 17 -10 17 -59 0 -38 -4 -61
-12 -64 -7 -3 3 -5 22 -5 19 0 29 2 23 5 -9 3 -13 28 -13 74 0 71 -7 81 -40
59z"/>
<path d="M1775 2420 c-20 -22 -14 -26 14 -8 24 15 51 4 51 -21 0 -11 -18 -39
-39 -61 l-39 -41 51 3 c28 2 52 8 54 14 2 6 -11 8 -34 6 l-38 -4 33 34 c17 19
32 43 32 54 0 44 -53 59 -85 24z"/>
<path d="M2507 2398 c6 -53 10 -68 20 -68 4 0 6 25 5 55 -3 37 -8 55 -17 55
-10 0 -12 -12 -8 -42z"/>
<path d="M2053 1963 c-32 -26 -94 -77 -138 -113 -44 -37 -92 -70 -106 -73 -50
-13 -64 -88 -24 -135 23 -28 25 -38 25 -131 0 -83 3 -101 15 -101 12 0 15 19
15 108 0 102 -1 108 -22 117 -19 8 -24 19 -26 58 -4 57 9 77 49 77 21 0 59 25
151 102 121 100 138 116 138 131 0 16 -22 5 -77 -40z"/>
<path d="M1840 1693 c1 -53 2 -56 15 -39 16 21 19 53 9 80 -13 33 -24 14 -24
-41z"/>
<path d="M393 1787 c-13 -5 -23 -16 -23 -24 0 -12 3 -12 21 1 12 8 28 12 35 9
26 -10 15 -50 -26 -92 l-40 -41 54 0 c37 0 56 4 59 14 4 11 -3 13 -36 9 l-42
-6 31 34 c38 42 46 63 31 82 -17 21 -39 26 -64 14z"/>
<path d="M1092 1784 c-12 -8 -22 -20 -22 -25 0 -6 10 -3 21 5 55 38 66 -24 14
-80 -19 -20 -35 -38 -35 -40 0 -2 22 -4 49 -4 33 0 51 5 54 14 4 11 -3 13 -36
8 l-42 -5 38 41 c20 23 37 49 37 56 0 13 -36 46 -50 46 -3 0 -16 -7 -28 -16z"/>
<path d="M2493 1789 c-13 -5 -23 -16 -23 -24 0 -15 2 -15 22 -1 42 29 67 -24
28 -59 -11 -10 -20 -23 -20 -29 0 -6 14 4 31 22 49 55 24 114 -38 91z"/>
<path d="M2468 1652 c-9 -11 -2 -13 42 -10 29 2 55 8 57 13 5 15 -86 13 -99
-3z"/>
<path d="M405 1180 c-11 -5 -14 -9 -7 -9 17 -1 17 -127 0 -134 -7 -3 5 -5 27
-5 22 0 34 2 28 5 -9 3 -13 29 -13 79 0 76 -1 79 -35 64z"/>
<path d="M1088 1179 c-10 -5 -18 -17 -18 -26 0 -14 2 -14 20 2 10 9 26 15 35
12 26 -11 17 -51 -20 -87 -19 -19 -35 -38 -35 -42 0 -15 87 -9 100 7 12 14 8
15 -31 9 l-44 -7 38 41 c42 47 45 62 19 85 -21 19 -39 21 -64 6z"/>
<path d="M1798 1173 c16 -6 16 -115 0 -131 -9 -9 -9 -12 0 -12 9 0 12 -36 12
-130 0 -109 2 -130 15 -130 13 0 15 21 15 130 0 97 3 130 13 130 8 0 9 2 1 8
-6 4 -15 37 -18 75 -7 60 -10 67 -29 66 -12 0 -16 -3 -9 -6z"/>
<path d="M1631 905 c-106 -91 -127 -115 -98 -115 19 0 234 185 229 198 -2 7
-7 12 -11 12 -5 0 -58 -43 -120 -95z"/>
<path d="M1487 742 c-14 -16 -17 -43 -17 -165 0 -91 4 -147 10 -147 6 0 10 58
10 155 l0 155 160 0 c100 0 160 4 160 10 0 6 -58 10 -153 10 -136 0 -156 -2
-170 -18z"/>
<path d="M1810 619 c0 -95 -3 -114 -17 -125 -17 -13 -17 -13 0 -14 11 0 17 -8
17 -25 l0 -24 -152 -3 c-110 -2 -152 -6 -156 -15 -5 -18 289 -18 306 -1 16 16
15 -1 -2 -34 -15 -28 -14 -28 15 -28 21 0 28 4 23 12 -5 7 -7 93 -5 190 2 157
1 178 -13 178 -14 0 -16 -16 -16 -111z"/>
<path d="M1288 616 c-69 -57 -129 -109 -132 -115 -4 -6 -17 -11 -30 -11 -26 0
-60 -33 -54 -52 3 -8 11 -3 22 15 14 20 27 27 50 27 25 0 56 21 159 108 70 59
128 111 128 117 1 25 -27 8 -143 -89z"/>
<path d="M409 482 c11 -20 8 -102 -3 -121 -5 -7 4 -11 25 -11 26 0 30 3 21 12
-7 7 -12 39 -12 75 0 57 -2 63 -20 63 -17 0 -19 -3 -11 -18z"/>
<path d="M810 415 c0 -13 21 -15 125 -15 104 0 125 2 125 15 0 13 -21 15 -125
15 -104 0 -125 -2 -125 -15z"/>
<path d="M1187 424 c-19 -20 5 -24 134 -24 108 0 140 3 137 13 -5 13 -258 24
-271 11z"/>
<path d="M1070 389 c0 -24 22 -49 44 -49 24 0 56 28 56 48 0 21 -20 12 -30
-13 -5 -14 -16 -25 -24 -25 -7 0 -17 11 -20 25 -6 24 -26 35 -26 14z"/>
<path d="M2496 1181 c-18 -7 -18 -8 -3 -14 25 -9 24 -112 0 -126 -15 -8 -10
-10 22 -11 30 0 36 3 27 12 -7 7 -12 40 -12 80 0 70 -1 72 -34 59z"/>
<path d="M2483 493 c-7 -2 -13 -11 -13 -19 0 -11 4 -12 19 -3 22 15 51 5 51
-16 0 -8 -19 -36 -42 -61 l-42 -45 54 3 c30 2 55 8 57 15 3 9 -6 10 -34 6
l-38 -6 33 37 c34 39 42 80 16 90 -18 7 -43 7 -61 -1z"/>
</g>
</svg>
