<?xml version="1.0" standalone="no"?>
<!DOCTYPE svg PUBLIC "-//W3C//DTD SVG 20010904//EN"
 "http://www.w3.org/TR/2001/REC-SVG-20010904/DTD/svg10.dtd">
<svg version="1.0" xmlns="http://www.w3.org/2000/svg"
 width="300.000000pt" height="229.000000pt" viewBox="0 0 300.000000 229.000000"
 preserveAspectRatio="xMidYMid meet">
<metadata>
Created by potrace 1.10, written by Peter Selinger 2001-2011
</metadata>
<g transform="translate(0.000000,229.000000) scale(0.100000,-0.100000)"
fill="currentColor" stroke="none" style="filter: invert(100%)">
<path d="M50 1155 l0 -1085 1420 0 1420 0 0 1085 0 1085 -1420 0 -1420 0 0
-1085z m940 718 l0 -348 -460 0 -460 0 0 348 0 347 460 0 460 0 0 -347z m940
0 l0 -348 -460 0 -460 0 0 348 0 347 460 0 460 0 0 -347z m940 0 l0 -348 -330
0 c-262 0 -327 2 -314 12 9 7 21 14 27 16 6 2 7 9 3 15 -5 9 -20 4 -50 -18
-42 -28 -47 -29 -150 -28 l-106 1 0 144 0 143 45 0 c25 0 45 5 45 10 0 6 -20
10 -45 10 l-45 0 0 195 0 195 460 0 460 0 0 -347z m-1880 -713 l0 -350 -460 0
-460 0 0 350 0 350 460 0 460 0 0 -350z m550 305 c0 -34 4 -45 16 -45 12 0 15
9 12 43 l-3 42 183 3 182 2 0 -64 c0 -42 -4 -66 -12 -70 -10 -5 -10 -7 0 -12
9 -4 12 -69 12 -271 0 -261 0 -266 -19 -249 -11 10 -21 13 -25 7 -4 -5 4 -17
16 -25 21 -15 -17 -16 -435 -16 l-457 0 0 350 0 350 265 0 265 0 0 -45z m1330
-305 l0 -350 -460 0 -460 0 0 284 c0 276 1 285 20 291 11 3 20 13 20 21 0 12
-4 12 -20 4 -19 -10 -20 -8 -20 45 l0 55 460 0 460 0 0 -350z m-1880 -720 l0
-350 -460 0 -460 0 0 350 0 350 460 0 460 0 0 -350z m940 0 l0 -350 -460 0
-460 0 0 350 0 350 460 0 460 0 0 -350z m940 0 l0 -350 -460 0 -460 0 0 350 0
350 460 0 460 0 0 -350z"/>
<path d="M486 1948 c-21 -29 -21 -117 0 -146 20 -30 68 -30 88 0 23 33 21 130
-2 151 -26 24 -68 21 -86 -5z m68 -24 c3 -9 6 -31 6 -49 0 -46 -9 -65 -31 -65
-17 0 -19 8 -19 65 0 57 2 65 19 65 10 0 22 -7 25 -16z"/>
<path d="M1457 1953 c-20 -16 -36 -36 -37 -47 0 -18 1 -18 26 -1 l27 17 -5
-71 c-5 -67 -4 -71 16 -71 20 0 21 4 19 96 -1 53 -3 98 -6 100 -2 2 -20 -8
-40 -23z"/>
<path d="M1640 1820 c0 -5 20 -10 45 -10 25 0 45 5 45 10 0 6 -20 10 -45 10
-25 0 -45 -4 -45 -10z"/>
<path d="M1790 1820 c0 -5 20 -10 45 -10 25 0 45 5 45 10 0 6 -20 10 -45 10
-25 0 -45 -4 -45 -10z"/>
<path d="M1540 1775 c0 -33 4 -45 15 -45 11 0 15 12 15 45 0 33 -4 45 -15 45
-11 0 -15 -12 -15 -45z"/>
<path d="M1542 1624 c2 -27 8 -48 13 -46 15 3 12 85 -3 90 -10 3 -12 -8 -10
-44z"/>
<path d="M2388 1945 c-16 -13 -28 -31 -28 -40 0 -14 3 -13 27 2 l26 17 -6 -72
c-6 -69 -5 -72 16 -72 21 0 22 4 22 95 0 106 -7 115 -57 70z"/>
<path d="M2100 1820 c0 -5 20 -10 45 -10 25 0 45 5 45 10 0 6 -20 10 -45 10
-25 0 -45 -4 -45 -10z"/>
<path d="M2337 1632 c-48 -32 -34 -51 17 -22 20 12 36 26 36 30 0 19 -17 16
-53 -8z"/>
<path d="M486 1238 c-10 -14 -16 -44 -16 -76 0 -43 5 -58 25 -77 29 -30 35
-31 69 -4 23 18 26 27 26 83 0 48 -4 67 -18 79 -26 24 -68 21 -86 -5z m74 -17
c14 -27 13 -94 -3 -115 -37 -50 -80 21 -58 94 13 45 43 54 61 21z"/>
<path d="M1540 1315 c0 -33 4 -45 15 -45 11 0 15 12 15 45 0 33 -4 45 -15 45
-11 0 -15 -12 -15 -45z"/>
<path d="M1813 1319 c-32 -20 -43 -39 -24 -39 18 0 71 35 71 48 0 17 -10 15
-47 -9z"/>
<path d="M1451 1230 c-36 -30 -36 -54 -1 -32 19 12 20 9 20 -63 0 -60 3 -75
15 -75 12 0 15 18 15 100 0 55 -3 100 -7 100 -5 -1 -23 -14 -42 -30z"/>
<path d="M1672 1236 c-20 -15 -29 -27 -22 -31 12 -8 71 24 78 43 6 19 -20 13
-56 -12z"/>
<path d="M1540 1187 c0 -32 18 -49 42 -36 21 11 25 34 4 26 -8 -3 -16 2 -19
14 -7 27 -27 24 -27 -4z"/>
<path d="M1650 1052 c0 -12 57 -62 70 -62 17 0 11 15 -18 43 -28 26 -52 35
-52 19z"/>
<path d="M1766 952 c-7 -12 62 -64 75 -56 6 4 -3 18 -23 35 -35 30 -44 34 -52
21z"/>
<path d="M2076 1475 c-10 -8 -23 -16 -29 -18 -6 -2 -7 -8 -3 -15 7 -12 76 23
76 39 0 13 -22 10 -44 -6z"/>
<path d="M2365 1236 c-11 -17 -15 -42 -13 -82 3 -49 7 -60 31 -77 l27 -21 28
21 c23 17 27 28 30 77 4 72 -15 106 -58 106 -20 0 -35 -8 -45 -24z m79 -34
c14 -48 -3 -106 -31 -110 -17 -3 -26 3 -33 23 -22 58 -4 128 32 123 15 -2 25
-13 32 -36z"/>
<path d="M486 518 c-10 -14 -16 -44 -16 -76 0 -43 5 -58 25 -77 30 -31 46 -31
73 -2 30 31 32 135 4 160 -26 24 -68 21 -86 -5z m74 -17 c14 -27 13 -94 -3
-115 -37 -50 -80 21 -58 94 13 45 43 54 61 21z"/>
<path d="M1426 518 c-10 -14 -16 -44 -16 -76 0 -43 5 -58 25 -77 29 -30 35
-31 69 -4 23 18 26 28 26 78 0 35 -6 65 -16 79 -20 30 -68 30 -88 0z m74 -17
c5 -11 10 -36 10 -56 0 -47 -15 -75 -41 -75 -26 0 -42 44 -34 94 3 22 8 43 11
48 10 15 43 8 54 -11z"/>
<path d="M2001 748 c0 -19 57 -61 70 -53 6 5 -2 18 -23 36 -36 31 -48 35 -47
17z"/>
<path d="M2117 653 c-9 -9 43 -63 60 -63 21 0 15 15 -17 43 -33 30 -34 30 -43
20z"/>
<path d="M2230 550 c0 -14 51 -59 68 -60 19 0 15 8 -20 40 -35 31 -48 37 -48
20z"/>
<path d="M2391 510 c-36 -31 -37 -49 -2 -30 20 10 21 9 21 -65 0 -60 3 -75 15
-75 12 0 15 18 15 100 0 55 -3 100 -7 100 -5 -1 -23 -14 -42 -30z"/>
</g>
</svg>
