<?xml version="1.0" standalone="no"?>
<!DOCTYPE svg PUBLIC "-//W3C//DTD SVG 20010904//EN"
 "http://www.w3.org/TR/2001/REC-SVG-20010904/DTD/svg10.dtd">
<svg version="1.0" xmlns="http://www.w3.org/2000/svg"
 width="300.000000pt" height="230.000000pt" viewBox="0 0 300.000000 230.000000"
 preserveAspectRatio="xMidYMid meet">
<metadata>
Created by potrace 1.10, written by Peter Selinger 2001-2011
</metadata>
<g transform="translate(0.000000,230.000000) scale(0.100000,-0.100000)"
fill="currentColor" stroke="none" style="filter: invert(100%)">
<path d="M70 1140 l0 -1090 1423 0 1422 0 -2 1087 -3 1088 -1420 3 -1420 2 0
-1090z m940 720 l0 -350 -460 0 -460 0 0 350 0 350 460 0 460 0 0 -350z m940
0 l0 -350 -460 0 -460 0 0 350 0 350 460 0 460 0 0 -350z m949 0 l0 -350 -464
0 -465 0 0 140 0 140 45 0 c33 0 45 4 45 15 0 11 -12 15 -45 15 l-45 0 0 195
0 195 465 0 465 0 -1 -350z m-1889 -720 l0 -350 -460 0 -460 0 0 350 0 350
460 0 460 0 0 -350z m560 310 c0 -22 5 -40 10 -40 6 0 10 18 10 40 l0 40 180
0 180 0 0 -342 0 -342 -29 28 c-16 16 -31 23 -35 18 -3 -6 8 -22 26 -36 l33
-26 -457 0 -458 0 0 350 0 350 270 0 270 0 0 -40z m1330 -310 l0 -350 -465 0
-465 0 0 350 0 350 465 0 465 0 0 -350z m-1890 -720 l0 -350 -460 0 -460 0 0
350 0 350 460 0 460 0 0 -350z m940 0 l0 -350 -460 0 -460 0 0 350 0 350 460
0 460 0 0 -350z m950 0 l0 -350 -465 0 -465 0 0 350 0 350 465 0 465 0 0 -350z"/>
<path d="M506 1938 c-24 -34 -22 -132 4 -158 26 -26 46 -25 75 5 20 19 25 34
25 72 0 66 -18 97 -57 101 -23 2 -35 -3 -47 -20z m65 -41 c9 -33 1 -95 -14
-104 -26 -16 -46 57 -31 115 9 31 36 24 45 -11z"/>
<path d="M1468 1930 c-28 -28 -36 -50 -19 -50 6 0 13 5 16 10 16 26 25 4 25
-61 0 -62 2 -70 18 -67 14 3 17 17 20 101 2 88 1 97 -15 96 -10 -1 -30 -14
-45 -29z"/>
<path d="M1660 1805 c0 -11 12 -15 45 -15 33 0 45 4 45 15 0 11 -12 15 -45 15
-33 0 -45 -4 -45 -15z"/>
<path d="M1810 1805 c0 -11 12 -15 45 -15 33 0 45 4 45 15 0 11 -12 15 -45 15
-33 0 -45 -4 -45 -15z"/>
<path d="M1570 1760 c0 -27 5 -50 10 -50 6 0 10 23 10 50 0 28 -4 50 -10 50
-5 0 -10 -22 -10 -50z"/>
<path d="M1570 1605 c0 -25 5 -45 10 -45 6 0 10 20 10 45 0 25 -4 45 -10 45
-5 0 -10 -20 -10 -45z"/>
<path d="M2408 1930 c-28 -28 -36 -50 -19 -50 6 0 13 5 16 10 16 26 25 4 25
-60 0 -63 2 -70 20 -70 19 0 20 7 20 100 0 89 -2 100 -17 99 -10 -1 -30 -14
-45 -29z"/>
<path d="M2120 1805 c0 -11 12 -15 45 -15 33 0 45 4 45 15 0 11 -12 15 -45 15
-33 0 -45 -4 -45 -15z"/>
<path d="M2270 1805 c0 -10 10 -15 30 -15 20 0 30 5 30 15 0 10 -10 15 -30 15
-20 0 -30 -5 -30 -15z"/>
<path d="M523 1238 c-28 -13 -37 -39 -36 -101 1 -57 23 -87 64 -87 39 0 59 33
59 98 0 43 -5 58 -25 77 -27 28 -30 28 -62 13z m60 -57 c18 -73 -25 -143 -60
-95 -16 22 -17 88 -2 115 17 32 51 21 62 -20z"/>
<path d="M1570 1300 c0 -27 5 -50 10 -50 6 0 10 23 10 50 0 28 -4 50 -10 50
-5 0 -10 -22 -10 -50z"/>
<path d="M1471 1213 c-37 -37 -36 -54 1 -29 l23 15 -3 -74 c-4 -64 -2 -75 12
-75 14 0 16 15 16 100 0 55 -3 99 -7 99 -5 -1 -23 -17 -42 -36z"/>
<path d="M1570 1166 c0 -14 5 -28 10 -31 6 -4 10 7 10 24 0 17 -4 31 -10 31
-5 0 -10 -11 -10 -24z"/>
<path d="M1657 1053 c-9 -9 43 -63 60 -63 20 0 16 14 -15 43 -30 29 -35 31
-45 20z"/>
<path d="M1770 948 c0 -18 68 -70 75 -58 3 5 -9 23 -27 39 -36 33 -48 38 -48
19z"/>
<path d="M2400 1232 c-28 -23 -38 -113 -18 -152 17 -31 62 -39 89 -14 52 47
23 184 -39 184 -5 0 -20 -8 -32 -18z m58 -24 c17 -17 15 -100 -2 -124 -34 -44
-70 37 -51 113 6 25 33 31 53 11z"/>
<path d="M511 506 c-48 -57 -23 -186 36 -186 8 0 25 11 38 25 20 19 25 34 25
77 0 65 -20 98 -59 98 -16 0 -34 -6 -40 -14z m72 -45 c18 -73 -25 -143 -60
-95 -16 22 -17 88 -2 115 17 32 51 21 62 -20z"/>
<path d="M1446 498 c-10 -14 -16 -44 -16 -76 0 -43 5 -58 25 -77 13 -14 29
-25 35 -25 62 0 91 127 42 183 -22 24 -67 22 -86 -5z m74 -17 c14 -27 13 -94
-3 -115 -7 -10 -22 -17 -33 -14 -15 2 -20 13 -22 52 -2 28 -1 60 3 73 7 28 40
31 55 4z"/>
<path d="M2000 743 c0 -13 67 -63 74 -56 8 9 -44 63 -61 63 -7 0 -13 -3 -13
-7z"/>
<path d="M2120 642 c0 -5 14 -21 30 -37 21 -20 33 -26 41 -18 7 7 -1 18 -25
36 -37 28 -46 32 -46 19z"/>
<path d="M2230 541 c0 -14 69 -65 77 -57 9 8 -47 66 -64 66 -7 0 -13 -4 -13
-9z"/>
<path d="M2410 485 c-24 -25 -29 -35 -18 -35 9 0 20 5 23 10 3 6 11 10 17 10
6 0 9 -26 7 -72 -3 -51 0 -72 9 -75 9 -4 12 20 12 96 0 56 -3 101 -7 101 -5 0
-24 -16 -43 -35z"/>
</g>
</svg>
